<?xml version="1.0" encoding="UTF-8" standalone="no"?>
<!-- Created with Inkscape (http://www.inkscape.org/) -->

<svg
   width="231.4942mm"
   height="231.4942mm"
   viewBox="0 0 231.4942 231.4942"
   version="1.1"
   id="svg1"
   xml:space="preserve"
   xmlns="http://www.w3.org/2000/svg"
   xmlns:svg="http://www.w3.org/2000/svg"><defs
     id="defs1" /><g
     id="layer4"
     style="display:inline"
     transform="translate(-19.719559,-8.0780029)"><circle
       style="display:inline;fill:#008181;fill-opacity:1;stroke-width:0.264583"
       id="path4"
       cx="135.46666"
       cy="123.8251"
       r="115.7471" /></g><g
     id="layer5"
     style="display:inline;fill:#ffccaa"
     transform="translate(-19.719559,-8.0780029)"><path
       style="fill:#fde3a7;fill-opacity:1;stroke-width:0.264999;stroke-dasharray:none"
       d="m 176.3918,71.585322 c -1.59412,0.484923 -3.12549,1.345676 -4.44803,2.363012 -0.20774,0.159806 -0.34825,0.396195 -0.556,0.556001 -0.50195,0.386114 -1.51871,0.978154 -2.08501,1.390007 -0.88156,0.641138 -1.65312,1.405895 -2.50201,2.085009 -1.22349,0.978792 -2.52391,1.858185 -3.75302,2.780011 -0.30844,0.231331 -0.51363,0.620422 -0.834,0.834004 -0.0862,0.05747 -0.20474,0.06574 -0.278,0.139002 -0.0733,0.07326 -0.0657,0.204742 -0.139,0.278 -0.15754,0.157538 -0.44082,0.186627 -0.55601,0.417002 -0.11708,0.23418 -0.29759,0.522735 -0.556,0.695005 -0.2043,0.136199 -0.41174,0.200612 -0.556,0.417002 -0.0575,0.0862 -0.0657,0.204739 -0.139,0.278 -0.14652,0.146521 -0.40948,0.131482 -0.556,0.278003 -0.0733,0.07326 -0.0657,0.20474 -0.139,0.278 -0.0733,0.07326 -0.19512,0.07684 -0.278,0.139002 -0.31137,0.233518 -0.52265,0.600482 -0.83401,0.834003 -0.95724,0.717926 -1.97393,1.668635 -2.22401,2.919013 -0.087,0.435113 0.06,0.85579 0.139,1.251006 0.0454,0.227169 -0.0562,0.470252 0,0.695002 0.17843,0.713698 0.23858,1.371312 0.41701,2.085009 0.10716,0.428649 -0.13922,0.972363 0,1.390007 0.14874,0.446241 0.0475,0.79334 0.13899,1.251006 0.0203,0.101592 0.11388,0.177488 0.13901,0.278 0.0562,0.224751 -0.0454,0.467834 0,0.695003 0.0203,0.101594 0.12196,0.175807 0.139,0.278003 0.0762,0.457231 0.0627,0.932537 0.139,1.390007 0.19819,1.189148 1.25912,3.074249 1.80701,4.170019 0.73962,1.47925 2.03288,2.66629 3.33601,3.61401 0.88324,0.64236 0.52998,0.52924 1.52901,1.11201 0.88579,0.51671 0.80636,0.38711 1.807,0.695 0.56017,0.17236 1.09943,0.41386 1.66801,0.556 1.19031,0.29758 2.53538,0.13901 3.75302,0.13901 0.46333,0 0.9295,0.0512 1.39001,0 1.18772,-0.13197 2.26327,-0.65226 3.33601,-1.11201 0.7028,-0.3012 1.45324,-0.52174 2.08501,-0.973 0.15996,-0.11426 0.26599,-0.29116 0.417,-0.41701 0.51053,-0.42543 1.14895,-0.69675 1.66801,-1.112 0.95895,-0.76716 2.16423,-1.9804 2.78001,-3.05801 0.96663,-1.691602 1.88612,-3.573342 2.50201,-5.421028 0.1643,-0.492887 0.18219,-1.059376 0.41701,-1.529009 0.40047,-0.800941 0.70404,-1.73129 0.834,-2.64101 0.16388,-1.147156 0.0227,-2.31208 0.139,-3.475016 0.0647,-0.647086 0.22857,-1.303451 0.278,-1.946008 0.0803,-1.043691 0,-2.149059 0,-3.197016 0,-1.927087 -0.009,-3.816839 -0.278,-5.699024 -0.2621,-1.834716 -0.01,0.647022 -0.278,-0.695005 -0.0273,-0.1363 0.0516,-0.287943 0,-0.417002 -0.0487,-0.121676 -0.19937,-0.173159 -0.278,-0.278 -0.2813,-0.37506 0.002,-0.227788 -0.27801,-0.695002 -0.19885,-0.331425 -0.81138,-1.164545 -1.112,-1.390007 -0.24798,-0.185984 -0.61781,-0.339807 -0.834,-0.556004 -0.0733,-0.07326 -0.0657,-0.20474 -0.139,-0.278 -0.19548,-0.195474 -1.16886,-0.778717 -1.39001,-0.834004 -0.13485,-0.03371 -0.28215,0.03371 -0.417,0 -0.0636,-0.0159 -0.0768,-0.118279 -0.139,-0.139001 -0.2546,-0.08487 -0.52124,-0.03475 -0.83401,-0.138999 -0.27431,-0.09144 -0.71624,0.128376 -0.973,0 -0.34464,-0.172321 -0.53545,-0.05923 -0.695,-0.139002 -0.16192,-0.08096 -0.25509,-0.197043 -0.41701,-0.278 -0.29837,-0.149185 -2.21284,0.117546 -2.363,0.138999 z"
       id="path22" /><path
       style="fill:#fde3a7;fill-opacity:1;stroke-width:0.264999;stroke-dasharray:none"
       d="m 178.1988,75.47734 c 0.24908,-0.710356 0.14775,-1.50762 0.278,-2.224011 0.0524,-0.288311 0.21211,-0.548468 0.278,-0.834003 0.1096,-0.474928 0.14472,-1.318303 0.27801,-1.807009 0.0656,-0.240721 0.22387,-0.45143 0.278,-0.695003 0.0402,-0.180919 -0.0262,-0.37253 0,-0.556003 0.0723,-0.506174 0.1438,-0.292394 0.278,-0.695002 0.50419,-1.512575 -0.10219,0.232928 0.139,-0.973005 0.054,-0.270169 0.15715,-0.731295 0.278,-0.973003 0.0293,-0.05861 0.11828,-0.07684 0.139,-0.139001 0.081,-0.242877 0.058,-0.452126 0.139,-0.695003 0.0461,-0.138422 0.23186,-0.278579 0.278,-0.417001 0.0293,-0.08791 -0.0293,-0.19009 0,-0.278003 0.0414,-0.124325 0.23656,-0.153676 0.278,-0.278001 0.0975,-0.292444 0.0863,-0.54651 0.278,-0.834003 0.16956,-0.254334 0.17722,-0.01387 0.27801,-0.417002 0.14542,-0.581703 0.37479,-0.995318 0.695,-1.529006 0.25286,-0.421434 0.37437,-0.935929 0.556,-1.390007 0.17678,-0.441936 0.49939,-0.859769 0.69501,-1.251006 0.41605,-0.832104 2.55193,-2.101651 3.33601,-2.363012 0.559,-0.18633 1.74476,-1.14313 2.36301,-0.834004 0.21186,0.105931 0.30077,0.381651 0.417,0.556004 0.0727,0.109042 0.2194,0.160787 0.278,0.278 0.0207,0.04144 -0.0328,0.106238 0,0.139001 0.0328,0.03276 0.10624,-0.03276 0.13901,0 0.0983,0.09829 -0.044,0.285134 0,0.417002 0.0207,0.06216 0.10969,0.08039 0.13899,0.139002 0.0927,0.185332 -0.0927,0.509669 0,0.695002 0.18711,0.374211 0.0485,0.653047 0.13901,0.834004 0.10034,0.200689 0.17765,0.355314 0.278,0.556003 0.0556,0.111199 -0.0556,0.3058 0,0.417002 0.11366,0.227335 0.29648,0.704247 0.556,0.834004 0.0829,0.04144 0.19512,-0.04144 0.278,0 0.2224,0.111199 0.3336,0.444801 0.556,0.556003 0.11888,0.05944 0.29813,0.07956 0.41701,0.138999 0.1668,0.0834 0.2502,0.333602 0.417,0.417002 0.21482,0.107413 0.48017,0.17059 0.695,0.278003 0.17718,0.08859 0.37226,0.355753 0.556,0.417001 0.17583,0.05861 0.38018,-0.05861 0.55601,0 0.0622,0.02072 0.0768,0.11828 0.139,0.138999 0.17582,0.05861 0.3762,-0.04495 0.556,0 0.46411,0.116028 0.93398,0.125995 1.39001,0.278003 0.3336,0.111199 0.7784,-0.111201 1.112,0 0.0622,0.02072 0.0768,0.11828 0.139,0.138999 0.3314,0.110469 0.71184,0.0056 1.11201,0.139002 0.1668,0.0556 0.3892,-0.0556 0.556,0 0.6354,0.211801 1.28907,0.424614 1.94601,0.556003 0.1363,0.02726 0.2807,-0.02726 0.417,0 0.52625,0.105251 1.01567,0.427667 1.52901,0.556001 0.0899,0.02249 0.19008,-0.0293 0.278,0 0.0622,0.02072 0.0927,0.09267 0.139,0.139001 0.0927,0.04633 0.17971,0.106238 0.278,0.139002 0.21221,0.07074 0.48952,0.07051 0.695,0.138999 0.22148,0.07383 0.43598,0.352245 0.69501,0.417001 0.27662,0.06916 0.56841,0.145209 0.834,0.278003 0.11722,0.05861 0.15367,0.236559 0.278,0.278001 0.0879,0.0293 0.19009,-0.0293 0.278,0 0.38292,0.12764 2.09493,2.144564 2.36301,2.502011 0.34595,0.461259 0.93133,0.77149 1.25101,1.251005 0.0908,0.136208 0.18719,0.419796 0.278,0.556004 0.22968,0.344524 0.64398,0.592955 0.834,0.973005 0.22855,0.457089 0.46138,1.017381 0.83401,1.390004 0.0733,0.07326 0.20474,0.06574 0.278,0.139002 0.44428,0.444283 0.73636,1.167148 1.112,1.668007 0.15726,0.209683 0.39874,0.346321 0.55601,0.556004 0.16245,0.216601 0.58164,0.885277 0.695,1.112004 0.13516,0.270327 0.16149,0.461989 0.278,0.695002 0.0414,0.08289 -0.0655,0.212476 0,0.278003 0.0667,0.06672 0.46984,0.191841 0.556,0.278 0.16382,0.163814 0.20979,0.452398 0.417,0.556004 0.30787,0.153934 0.80635,0.454114 1.11201,0.556 0.0879,0.02931 0.19009,-0.0293 0.278,0 0.0622,0.02072 0.0754,0.123111 0.139,0.139002 0.13485,0.03371 0.28215,-0.03371 0.417,0 0.0636,0.0159 0.0768,0.118279 0.139,0.139001 0.37217,0.124055 0.86643,-0.07692 1.25101,0 0.34567,0.06913 1.46749,0.216482 1.66801,0.417002 0.0328,0.03276 -0.0207,0.09756 0,0.138999 0.13769,0.275394 0.5234,0.437608 0.695,0.695005 0.0813,0.121912 0.0354,0.313396 0.139,0.417002 0.0328,0.03276 0.10624,-0.03276 0.139,0 0.033,0.03303 0.76111,1.522219 0.83401,1.668007 0.0675,0.135083 0.0714,0.420918 0.13899,0.556001 0.31808,0.636153 -0.0576,-0.589836 0.27801,0.417002 0.0538,0.16157 0.0654,0.408805 0.139,0.556003 1.17365,2.347314 1.36371,2.190163 0.695,4.865023 -0.0809,0.32362 0.009,0.815576 -0.139,1.112004 -0.0293,0.05861 -0.1097,0.08039 -0.139,0.139002 -0.0414,0.08288 0.0655,0.212473 0,0.278 -0.0328,0.03276 -0.10624,-0.03276 -0.139,0 -0.0328,0.03276 0.0328,0.106238 0,0.139002 -0.0328,0.03276 -0.10624,-0.03276 -0.139,0 -0.0328,0.03276 0.0328,0.106238 0,0.138999 -0.0328,0.03276 -0.0976,-0.02072 -0.139,0 -0.41606,0.208028 -1.71212,1.712113 -2.08501,2.085009 -0.29752,0.297516 -0.62607,0.741717 -0.97301,0.973005 -0.0862,0.05747 -0.20474,0.06574 -0.278,0.139001 -0.0328,0.03276 0.0328,0.106239 0,0.138999 -0.21397,0.213977 -0.62003,0.34203 -0.834,0.556004 -0.0328,0.03276 0.0328,0.106238 0,0.139001 -0.0806,0.08056 -0.47544,0.197438 -0.556,0.278 -0.0328,0.03276 0.0328,0.106239 0,0.139002 -0.0733,0.07326 -0.20475,0.06574 -0.27801,0.138999 -0.19749,0.197495 -0.25704,0.406524 -0.556,0.556003 -0.27416,0.137081 -0.55291,0.276455 -0.834,0.417002 -0.0829,0.04144 -0.19512,-0.04144 -0.278,0 -0.0586,0.02931 -0.0768,0.118279 -0.139,0.139002 -0.0879,0.0293 -0.19009,-0.02931 -0.27801,0 -0.0622,0.02072 -0.0768,0.118279 -0.13899,0.138998 -0.0879,0.02931 -0.19009,-0.0293 -0.27801,0 -0.0622,0.02072 -0.0754,0.123111 -0.139,0.139002 -0.13485,0.03371 -0.28215,-0.03371 -0.417,0 -0.23401,0.0585 -0.57111,0.329372 -0.834,0.417002 -0.24067,0.08022 -0.7559,0.03045 -0.97301,0.139001 -0.0414,0.02072 0.0414,0.11828 0,0.139002 -0.35614,0.178072 -2.88907,-0.09766 -3.47501,0 -2.6905,0.448416 -5.37341,0.259723 -8.06204,-0.278003 -0.18173,-0.03635 -0.37427,0.03635 -0.556,0 -0.42625,-0.08525 -0.81467,-0.205277 -1.25101,-0.278001 -0.46333,-0.07722 -0.11583,0.115835 -0.695,0 -0.10159,-0.02032 -0.17641,-0.118681 -0.278,-0.139001 -0.43241,-0.08648 -0.34908,0.06919 -0.69501,0 -0.33653,-0.06731 -0.63647,-0.210696 -0.973,-0.278 -0.22276,-0.04455 -0.47225,0.04455 -0.695,0 -0.20125,-0.04025 -0.49376,-0.237752 -0.69501,-0.278003 -0.4491,-0.08982 -0.96413,-0.136041 -1.39,-0.278001 -0.43223,-0.144076 -0.93818,-0.544393 -1.39001,-0.695002 -1.94299,-0.647666 -3.81962,-1.480746 -5.56002,-2.641013 -0.56349,-0.375655 -1.45838,-1.08695 -1.80701,-1.668007 -0.0754,-0.12564 -0.0614,-0.292754 -0.139,-0.417002 -0.11395,-0.182322 -0.63364,-0.950463 -0.83401,-1.251005 -0.1285,-0.19276 -0.31339,-0.348793 -0.417,-0.556004 -0.0414,-0.08288 0.0344,-0.19196 0,-0.278 -0.15957,-0.398923 -0.61286,-1.058291 -0.834,-1.390007 -0.17578,-0.263663 -0.5048,-0.441399 -0.695,-0.695002 -0.18219,-0.242912 -0.13784,-0.414674 -0.27801,-0.695003 -0.0915,-0.183094 -0.32545,-0.372911 -0.417,-0.556003 -0.12433,-0.248663 -0.11151,-0.584266 -0.278,-0.834004 -0.20524,-0.307863 -0.47285,-0.5378 -0.695,-0.834003 -0.1814,-0.241861 -0.34399,-0.621993 -0.55601,-0.834004 -0.0328,-0.03276 -0.10623,0.03276 -0.13899,0 -0.0842,-0.0842 -0.49866,-0.608989 -0.55601,-0.695005 -0.06,-0.08997 -0.079,-0.327033 -0.139,-0.417002 -0.10904,-0.16356 -0.35484,-0.230513 -0.417,-0.417002 -0.0293,-0.08791 0.0293,-0.190087 0,-0.278 -0.0733,-0.219779 -0.29781,-0.357349 -0.417,-0.556003 -0.23509,-0.391808 -0.0942,-0.282708 -0.278,-0.834004 -0.10403,-0.312073 -0.2584,-0.377788 -0.41701,-0.695002 -0.0584,-0.116814 -0.0582,-0.475218 -0.139,-0.556003 -0.0328,-0.03276 -0.10623,0.03276 -0.139,0 -0.13344,-0.133438 0.0877,-0.658511 0,-0.834004 -0.22162,-0.443241 -0.19858,-0.973106 -0.278,-1.529006 z"
       id="path23" /><path
       style="fill:#fde3a7;fill-opacity:1;stroke-width:0.264999;stroke-dasharray:none"
       d="m 79.091355,108.00349 c -0.583785,0.13202 -4.212143,0.36225 -4.448019,0.834 -0.09923,0.19847 0.11651,1.08951 0.139002,1.112 0.0075,0.008 0.409469,0.27047 0.417002,0.27801 0.06552,0.0655 -0.06553,0.21247 0,0.278 0.03276,0.0328 0.106238,-0.0328 0.138998,0 0.08057,0.0806 0.197438,0.47544 0.278003,0.556 0.03276,0.0328 0.106239,-0.0328 0.138999,0 0.07343,0.0734 0.343572,0.62157 0.417002,0.695 0.03276,0.0328 0.09756,-0.0207 0.139002,0 0.164211,0.0821 0.263662,0.31478 0.417001,0.41701 0.358937,0.23929 0.759879,0.51893 1.112005,0.695 0.156302,0.0781 0.252349,0.36212 0.417001,0.417 0.08791,0.0293 0.19009,-0.0293 0.278003,0 0.124325,0.0414 0.160785,0.21939 0.278001,0.278 0.247737,0.12387 0.578212,0.28911 0.834003,0.417 0.323718,0.16186 0.765797,0.19145 1.112004,0.278 0.294355,0.0736 0.53965,0.34342 0.834004,0.41701 0.179803,0.045 0.38018,-0.0586 0.556004,0 0.06216,0.0207 0.07543,0.1231 0.139001,0.139 0.586986,0.14674 1.187609,0.12315 1.807009,0.278 0.299143,0.0748 1.94627,0.0926 2.224008,0 0.06216,-0.0207 0.07684,-0.11828 0.139002,-0.139 0.208499,-0.0695 0.486502,0.0695 0.695002,0 0.06216,-0.0207 0.08039,-0.1097 0.139001,-0.139 0.205833,-0.10292 0.612709,0.0553 0.834004,0 0.277233,-0.0693 0.397349,-0.139 0.695002,-0.139 0.447437,0 -0.237289,0.0328 0.278003,-0.13901 0.332616,-0.11087 0.771086,0.0852 1.112004,0 0.316762,-0.0792 1.797603,-0.54659 1.946008,-0.695 0.03276,-0.0328 -0.03276,-0.10624 0,-0.139 0.0695,-0.0695 0.208502,-0.0695 0.278003,-0.139 0.09802,-0.098 0.345951,-0.6919 0.417002,-0.834 0.06568,-0.13137 0.311957,-0.80005 0.138999,-0.97301 -0.03276,-0.0328 -0.106236,0.0328 -0.138999,0 -0.287597,-0.28759 0.439486,0.0113 -0.139002,-0.278 -0.40509,-0.20254 -0.662225,-0.33111 -1.112004,-0.556 -0.175244,-0.0876 -0.508563,-0.0458 -0.695005,-0.139 -0.238458,-0.11923 -0.411448,-0.32248 -0.695002,-0.417 -0.538493,-0.1795 -1.113623,-0.41741 -1.668007,-0.55601 -0.0899,-0.0225 -0.19009,0.0293 -0.278001,0 -0.06216,-0.0207 -0.07684,-0.11828 -0.139001,-0.139 -0.29368,-0.0979 -0.614759,-0.0196 -0.973005,-0.139 -0.19471,-0.0649 -1.085109,-0.0829 -1.251006,0 -0.05861,0.0293 -0.07684,0.11828 -0.138999,0.139 -0.159906,0.0533 -2.225392,0.0688 -2.363012,0 -0.05861,-0.0293 -0.08039,-0.10969 -0.139001,-0.139 -0.07766,-0.0388 -0.77823,-0.0832 -0.834004,-0.139 -0.03276,-0.0328 0.03276,-0.10623 0,-0.139 -0.110943,-0.11094 -0.549172,0.0729 -0.695002,0 -0.05861,-0.0293 -0.08039,-0.10969 -0.139002,-0.139 -0.115729,-0.0579 -0.467831,0.0882 -0.556001,0 -0.03276,-0.0328 0.03276,-0.10624 0,-0.139 -0.0695,-0.0695 -0.347501,0.0695 -0.417001,0 -0.03276,-0.0328 0.03276,-0.10624 0,-0.139 -0.0695,-0.0695 -0.347501,0.0695 -0.417002,0 -0.03276,-0.0328 0.03276,-0.10624 0,-0.139 -0.03276,-0.0328 -0.09971,0.0245 -0.139002,0 -0.337992,-0.21124 -0.648668,-0.46334 -0.973005,-0.695 z"
       id="path25" /><path
       style="fill:#fde3a7;fill-opacity:1;stroke-width:0.264999;stroke-dasharray:none"
       d="m 107.16948,108.28149 c -0.74316,0.26814 -1.45369,0.64142 -2.22401,0.834 -0.77686,0.19422 -1.60081,0.30194 -2.36301,0.556 -0.71356,0.23786 -1.04843,0.40429 -1.80701,0.55601 -1.05602,0.2112 -2.042426,0.77347 -3.058011,1.112 -0.9902,0.33007 -1.846177,0.50609 -2.780011,0.97301 -0.296545,0.14827 -0.663371,0.20059 -0.973005,0.278 -0.648499,0.16212 -2.240796,0.84659 -2.780012,1.251 -1.183571,0.88768 -1.367096,1.73828 -1.807009,3.05802 -0.155688,0.46706 -0.56911,0.85366 -0.834003,1.251 -0.05747,0.0862 -0.06574,0.20474 -0.139002,0.278 -0.07326,0.0733 -0.195117,0.0768 -0.278,0.139 -0.343339,0.25751 -0.630275,0.57696 -0.973005,0.83401 -0.165767,0.12432 -0.390234,0.15367 -0.556001,0.278 -0.30689,0.23016 -0.514715,0.62114 -0.834004,0.834 -0.256302,0.17087 -0.683786,0.39457 -0.834003,0.695 -0.132557,0.26512 -0.379162,0.42974 -0.556004,0.69501 -0.263326,-0.0158 -0.09267,0.32433 -0.139001,0.417 -0.125389,0.25078 -0.434123,0.45125 -0.556004,0.695 -0.09667,0.19335 -0.17786,0.49473 -0.278,0.69501 -0.05861,0.11721 -0.219392,0.16078 -0.278,0.278 -0.09668,0.19335 -0.177864,0.49472 -0.278003,0.695 -0.05861,0.11722 -0.219393,0.16079 -0.278001,0.278 -0.132794,0.26559 -0.208846,0.55738 -0.278,0.83401 -0.167807,0.67122 -0.06606,-0.007 -0.278003,0.417 -0.211227,0.42245 -0.272084,0.95525 -0.417002,1.39 -0.09557,0.28673 -0.343813,0.54126 -0.417002,0.83401 -0.02246,0.0899 0.02931,0.19009 0,0.278 -0.118938,0.35681 -0.439017,0.76106 -0.556,1.112 -0.0695,0.20851 0.0695,0.48651 0,0.69501 -0.02072,0.0622 -0.11828,0.0768 -0.139002,0.139 -0.134181,0.40254 0.548973,1.71993 0.695002,2.08501 0.585518,1.46379 1.038408,3.08798 2.08501,4.30902 0.489047,0.57055 0.319682,0.32167 0.973005,0.695 1.534194,0.87668 3.081734,0.5044 4.726022,0.139 0.586023,-0.13023 1.241499,-0.20493 1.807009,-0.417 1.571119,-0.58917 3.095762,-1.36239 4.726019,-1.80701 3.331546,-0.9086 6.690061,-2.06214 9.869041,-3.47502 1.60218,-0.71207 3.25713,-1.38374 4.72603,-2.36301 0.10904,-0.0727 0.16896,-0.2053 0.278,-0.278 0.39691,-0.26461 0.88881,-0.38455 1.251,-0.695 0.86707,-0.7432 1.46191,-1.56737 2.08501,-2.50201 0.30591,-0.45886 0.72402,-0.89204 0.97301,-1.39001 0.13386,-0.26773 0.18892,-0.70579 0.278,-0.973 0.31229,-0.93688 0.34163,-1.57307 0.556,-2.50201 0.25259,-1.09456 0.3424,-0.827 0.417,-1.94601 0.0247,-0.36985 -0.0247,-0.74216 0,-1.11201 0.0979,-1.46867 0.55439,-2.92224 -0.139,-4.30902 -0.33679,-0.67358 -1.81497,-2.50678 -2.50201,-2.91901 -0.12564,-0.0754 -0.29136,-0.0636 -0.417,-0.139 -0.31157,-0.18694 -0.73635,-0.55002 -0.97301,-0.834 -0.139,-0.18534 -0.278,-0.37067 -0.417,-0.55601 -0.0927,-0.0463 -0.20474,-0.0657 -0.278,-0.139 -0.0733,-0.0733 -0.0657,-0.20474 -0.139,-0.278 -0.0723,-0.0723 -0.75584,-0.64289 -0.834,-0.695 -0.0386,-0.0257 -0.10624,0.0328 -0.139,0 -0.0733,-0.0733 -0.0657,-0.20474 -0.13901,-0.278 -0.0639,-0.0639 -0.44669,-0.22335 -0.556,-0.278 -0.2224,-0.1112 -0.6116,0.1112 -0.834,0 -0.0123,-0.006 -0.0808,-0.26509 -0.417,-0.139 -0.3304,0.12389 -0.64867,0.278 -0.97301,0.417 z"
       id="path26" /><path
       style="fill:#fde3a7;fill-opacity:1;stroke-width:0.264999;stroke-dasharray:none"
       d="m 81.593366,128.43658 c -0.321519,0.38985 -0.840962,0.79927 -1.112004,1.251 -0.07538,0.12564 -0.06362,0.29137 -0.139001,0.417 -0.224711,0.37453 -0.683088,0.54409 -0.973003,0.83401 -0.03276,0.0328 0.02569,0.10045 0,0.139 -0.178207,0.26731 -0.516797,0.42769 -0.695005,0.695 -0.421529,0.6323 -0.742997,1.3364 -1.251005,1.94601 -0.246653,0.29598 -0.74421,1.02221 -0.973003,1.25101 -0.173191,0.17319 -0.465198,0.28358 -0.556003,0.556 -0.0293,0.0879 0.0293,0.19009 0,0.278 -0.101206,0.30362 -0.549871,0.54374 -0.695002,0.83401 -0.129736,0.25946 0.129733,0.71353 0,0.973 -0.05861,0.11722 -0.219396,0.16079 -0.278003,0.278 -0.02072,0.0414 0.03276,0.10624 0,0.139 -0.03276,0.0328 -0.106239,-0.0328 -0.138999,0 -0.03276,0.0328 0.02072,0.0976 0,0.139 -0.09559,0.19119 -0.538689,0.73853 -0.695005,0.97301 -0.140203,0.2103 -0.405633,0.35551 -0.556001,0.556 -0.165301,0.2204 -0.402532,0.46479 -0.556003,0.695 -0.11494,0.17241 -0.131482,0.40948 -0.278,0.55601 -0.03276,0.0328 -0.106239,-0.0328 -0.139002,0 -0.103606,0.1036 -0.0354,0.31339 -0.139001,0.417 -0.03276,0.0328 -0.09756,-0.0207 -0.138999,0 -0.220634,0.11031 -0.325276,0.46427 -0.417002,0.556 -0.07326,0.0733 -0.204743,0.0657 -0.278003,0.139 -0.397804,0.3978 -1.116502,0.55825 -1.668008,0.834 -0.08288,0.0414 -0.195117,-0.0414 -0.278,0 -0.334256,0.16713 -0.773343,0.24767 -1.112007,0.41701 -0.05861,0.0293 -0.07543,0.1231 -0.138998,0.139 -0.134851,0.0337 -0.282152,-0.0337 -0.417002,0 -0.169014,0.0423 -0.387252,0.22175 -0.556004,0.278 -0.131868,0.0439 -0.292676,-0.0622 -0.417002,0 -0.05861,0.0293 -0.07684,0.11828 -0.139001,0.139 -0.131866,0.044 -0.285134,-0.044 -0.417002,0 -0.253084,0.0844 -0.441918,0.19364 -0.695002,0.278 -0.04396,0.0147 -0.09267,0 -0.139002,0 -0.09266,0 -0.190089,-0.0293 -0.278,0 -0.143978,0.048 -0.279104,0.20905 -0.417002,0.278 -0.193863,0.0969 -0.501139,0.0421 -0.695002,0.139 -0.398849,0.19943 -0.813758,0.54925 -1.251006,0.695 -0.08791,0.0293 -0.190089,-0.0293 -0.278003,0 -0.556926,0.18565 -1.497755,0.88788 -1.946007,1.11201 -0.963891,0.48194 -2.446602,4.00379 -2.780014,5.00402 -0.195353,0.58606 -0.716185,1.15437 -0.973003,1.66801 -0.224658,0.44931 -0.267285,0.94085 -0.417002,1.39001 -0.04144,0.12432 -0.236558,0.15367 -0.278003,0.278 -0.0293,0.0879 0.02931,0.19009 0,0.278 -0.08134,0.24402 -0.335658,0.45097 -0.417002,0.695 -0.0293,0.0879 0.02931,0.19009 0,0.278 -0.04144,0.12433 -0.219392,0.16079 -0.278,0.278 -0.04144,0.0829 0.04144,0.19512 0,0.27801 -0.116184,0.23236 -0.335669,0.451 -0.417002,0.695 -0.119316,0.35795 -0.01871,0.75109 -0.139001,1.112 -0.02072,0.0622 -0.11828,0.0768 -0.138999,0.139 -0.04395,0.13187 0.06216,0.29268 0,0.41701 -0.224287,0.44857 -0.130204,0.70819 0.138999,1.112 0.306242,0.07 0.07348,0.28595 0.139001,0.417 0.09446,0.18893 0.322541,0.36708 0.417002,0.556 0.266875,0.53375 0.577379,1.45417 1.390007,1.25101 0.230643,-0.0577 0.839888,-0.51359 1.112004,-0.695 0.307864,-0.20524 0.5378,-0.47285 0.834004,-0.69501 0.336216,-0.25216 0.77579,-0.30384 1.112007,-0.556 0.652205,-0.48915 1.153334,-1.17775 1.807006,-1.66801 0.08288,-0.0622 0.204742,-0.0657 0.278003,-0.139 0.118126,-0.11813 0.159872,-0.29887 0.278,-0.417 0.07326,-0.0733 0.195117,-0.0768 0.278,-0.139 0.487254,-0.36544 0.909903,-0.86692 1.390008,-1.25101 0.455154,-0.36412 0.77793,-0.79662 1.251005,-1.112 0.03855,-0.0257 0.09267,0 0.139002,0 0.09266,-0.0463 0.191796,-0.0815 0.278,-0.139 0.260376,-0.17358 0.555635,-0.44465 0.834004,-0.556 1.641284,-0.65652 -0.148934,0.21346 0.834003,-0.278 0.411486,-0.20575 0.95376,-0.54959 1.390007,-0.69501 0.08791,-0.0293 0.19009,0.0293 0.278001,0 0.256304,-0.0854 0.453358,-0.29618 0.695002,-0.417 0.886272,-0.44313 1.769591,-0.9543 2.641013,-1.39001 0.01987,-0.01 1.434099,-0.52436 1.529008,-0.556 0.08791,-0.0293 0.190087,0.0293 0.278,0 0.196578,-0.0655 0.359426,-0.21247 0.556004,-0.278 0.267372,-0.0891 0.566629,-0.0499 0.834003,-0.139 1.328166,-0.44272 2.668133,-0.70043 4.031017,-0.973 0.723109,-0.14463 0.139002,-0.0927 0.695003,-0.278 0.397922,-0.13265 0.865846,-0.0854 1.251005,-0.27801 0.551709,-0.27585 -0.614336,-0.0439 0.556004,-0.278 1.110355,-0.22207 2.225119,-0.47282 3.336014,-0.695 0.422453,-0.0845 0.555355,-0.31259 0.973006,-0.417 1.375933,-0.34399 2.652524,-0.76739 4.031017,-1.11201 0.292123,-0.073 0.409614,-0.32187 0.695004,-0.417 0.446352,-0.14878 0.948968,-0.13099 1.390005,-0.278 0.08483,-0.0283 0.332176,-0.24973 0.417002,-0.278 0.387006,-0.129 0.864597,-0.12344 1.251005,-0.278 0.25731,-0.10293 0.551299,-0.30392 0.834004,-0.41701 0.177377,-0.071 0.397049,-0.033 0.556003,-0.139 0.163563,-0.10904 0.241178,-0.32909 0.417002,-0.417 0.194733,-0.0974 0.500269,-0.18063 0.695002,-0.278 0.175824,-0.0879 0.253442,-0.30796 0.417005,-0.417 0.03855,-0.0257 0.101933,0.0278 0.138999,0 0.209682,-0.15726 0.33792,-0.41062 0.556003,-0.556 0.0862,-0.0575 0.20474,-0.0658 0.278,-0.139 0.03276,-0.0328 -0.03276,-0.10624 0,-0.139 0.0013,-0.001 0.803707,-0.40691 0.834004,-0.41701 0.08791,-0.0293 0.195117,0.0414 0.278003,0 0.04144,-0.0207 -0.03276,-0.10623 0,-0.139 0.06552,-0.0655 0.195117,0.0414 0.278,0 0.517542,-0.25877 0.763802,-0.9716 0.973002,-1.39 0.0519,-0.10387 0.44088,-0.34026 0.556,-0.417 0.19771,-0.13181 0.43451,-0.31301 0.55601,-0.55601 0.0207,-0.0414 -0.0328,-0.10624 0,-0.139 0.0655,-0.0655 0.21247,0.0655 0.278,0 0.0328,-0.0328 -0.0328,-0.10624 0,-0.139 0.0655,-0.0655 0.19009,0.0293 0.278,0 0.15759,-0.0525 1.01139,-0.48893 1.112,-0.556 0.0386,-0.0257 -0.0328,-0.10624 0,-0.139 0.33661,-0.16831 0.20475,-0.0657 0.41701,-0.278 0.0733,-0.0733 0.0657,-0.20475 0.139,-0.278 0.0328,-0.0328 0.10624,0.0328 0.139,0 0.0655,-0.0655 -0.0655,-0.21248 0,-0.27801 0.0328,-0.0328 0.10624,0.0328 0.139,0 0.0655,-0.0655 -0.0293,-0.19009 0,-0.278 0.0787,-0.23612 0.17971,-0.49842 0.278,-0.695 0.0586,-0.11721 0.20531,-0.16896 0.278,-0.278 0.16758,-0.25136 0.7765,-1.16 0.83401,-1.39001 0.0225,-0.0899 -0.0225,-0.1881 0,-0.278 0.0862,-0.3447 0.3441,-0.60854 0.417,-0.973 0.19535,-0.97678 -0.42521,0.85863 0.139,-0.83401 0.15315,-0.45947 0.29894,-0.91779 0.417,-1.39 0.0643,-0.25716 -0.0835,-0.58349 0,-0.83401 0.0452,-0.13562 0.22849,-0.099 0.139,-0.278 -0.081,-0.16192 -0.19704,-0.25508 -0.278,-0.417 -0.0207,-0.0414 0.0328,-0.10624 0,-0.139 -0.056,-0.056 -0.34493,-0.0909 -0.417,-0.139 -0.10905,-0.0727 -0.17316,-0.19937 -0.27801,-0.278 -0.40957,-0.30718 -1.17394,-0.48543 -1.668,-0.55601 -0.27521,-0.0393 -0.5614,0.0545 -0.83401,0 -0.38136,-0.0763 -0.73063,-0.20172 -1.112,-0.278 -0.56535,-0.11307 -1.25318,0.15824 -1.80701,0 -2.020493,-0.80819 0.22103,-0.0114 -1.112004,-0.278 -0.550042,-0.11001 -1.094136,-0.48427 -1.668007,-0.556 -0.927272,-0.11591 -1.844273,-0.14432 -2.780014,-0.278 -0.4865,-0.0695 -0.138999,0.139 -0.834004,0 -0.06425,-0.0129 -0.07543,-0.12311 -0.138999,-0.139 -0.425944,-0.10649 -3.388722,-0.0839 -3.892018,0 -0.102195,0.017 -0.176408,0.11868 -0.278,0.139 -0.345702,0.0691 -0.767323,-0.0574 -1.112007,0 -0.102195,0.017 -0.175805,0.12197 -0.278,0.139 -0.467667,0.0779 -1.137592,0.0632 -1.668007,0.139 -0.309841,0.0443 -0.670124,-0.0757 -0.973006,0 -0.327551,0.0819 -2.407359,0.32533 -2.780011,0.139 -0.05861,-0.0293 -0.09267,-0.0927 -0.139002,-0.139 -0.324334,-0.0927 -0.648668,-0.18533 -0.973005,-0.278 z"
       id="path27" /><path
       style="fill:#fde3a7;fill-opacity:1;stroke-width:0.264999;stroke-dasharray:none"
       d="m 107.58648,107.30848 c 0.0916,0.56353 0.64017,0.7664 0.83401,1.25101 0.17185,0.42963 0.19199,0.68198 0.278,1.112 0.0406,0.20319 0.22774,0.35498 0.278,0.55601 0.13651,0.54604 0.28049,1.12196 0.417,1.668 0.15386,0.61543 0.53842,1.18066 0.69501,1.80701 0.50306,2.01225 1.67782,4.00104 2.78001,5.83803 0.0403,0.34537 0.40336,0.4406 0.556,0.695 0.0754,0.12564 0.0636,0.29136 0.139,0.417 0.21299,0.35499 0.81344,1.09144 1.11201,1.39001 0.12532,0.12532 1.1406,1.03315 1.251,1.112 0.16862,0.12044 0.38359,0.16307 0.55601,0.27801 0.39916,0.26611 0.74399,0.66632 1.112,0.973 0.56024,0.46687 1.24503,0.80142 1.80701,1.25101 0.1535,0.1228 0.2635,0.2942 0.417,0.417 0.0809,0.0647 0.20474,0.0657 0.278,0.139 0.0733,0.0733 0.0657,0.20474 0.139,0.278 0.14652,0.14652 0.38359,0.16306 0.556,0.278 0.24545,0.16363 0.44487,0.38925 0.69501,0.556 0.23653,0.15769 0.49386,0.63287 0.695,0.83401 0.14652,0.14652 0.40948,0.13148 0.556,0.278 0.0733,0.0733 0.0657,0.20474 0.139,0.278 0.33454,0.33453 1.11972,0.80504 1.52901,1.112 0.20968,0.15726 0.34632,0.39874 0.556,0.55601 0.47146,0.35359 1.15592,0.71696 1.66801,0.973 1.00993,0.50497 -0.0807,0.0388 0.695,0.556 0.6655,0.44367 1.43525,0.78689 2.08501,1.25101 0.15996,0.11426 0.25344,0.30796 0.417,0.417 0.12192,0.0813 0.29137,0.0636 0.41701,0.139 0.32229,0.19338 0.65447,0.48265 0.973,0.695 0.17241,0.11495 0.40948,0.13149 0.556,0.27801 0.0328,0.0328 -0.0328,0.10623 0,0.139 0.24243,0.24242 1.10345,0.64296 1.39001,0.834 0.21808,0.14539 0.34632,0.39874 0.556,0.556 0.29484,0.22113 0.63973,0.52837 0.97301,0.69501 0.13105,0.0655 0.29136,0.0636 0.417,0.139 0.11237,0.0674 0.16562,0.21057 0.278,0.278 0.80192,0.48115 1.76664,0.76226 2.64101,1.112 0.19239,0.077 0.35282,0.23737 0.556,0.278 0.13631,0.0273 0.28071,-0.0273 0.41701,0 0.64668,0.12934 1.31857,0.34686 1.94601,0.55601 0.24955,0.0832 0.59252,0.0585 0.834,0.139 0.0622,0.0207 0.0768,0.11828 0.139,0.139 0.25499,0.085 0.52149,0.0348 0.834,0.139 0.27432,0.0914 0.71625,-0.12838 0.97301,0 0.62208,0.31104 1.42427,-0.0812 2.08501,0.139 0.0983,0.0328 0.17971,0.10624 0.278,0.139 0.19722,0.0657 0.51062,-0.0922 0.695,0 0.84945,0.42473 2.19417,-0.062 3.05802,-0.278 0.74107,-0.18527 2.5332,-0.61839 2.91901,-1.39001 0.0201,-0.0402 -0.73777,-1.89254 -0.834,-2.08501 -0.13517,-0.27033 -0.0439,-0.68769 -0.13901,-0.973 -0.18318,-0.54954 -0.4147,-1.10284 -0.556,-1.66801 -0.0225,-0.0899 0.0293,-0.19009 0,-0.278 -0.0655,-0.19658 -0.22108,-0.35677 -0.278,-0.556 -0.0382,-0.13365 0.0273,-0.2807 0,-0.417 -0.0561,-0.28033 -0.18674,-0.56022 -0.278,-0.83401 -0.15547,-0.46641 0.21925,-1.2295 0,-1.66801 -0.21944,-0.43888 -0.64351,-0.56113 -0.97301,-0.973 -0.16877,-0.21097 -0.25996,-0.47516 -0.417,-0.695 -0.43214,-0.605 -0.88454,-1.15553 -1.251,-1.80701 -0.69471,-1.23504 -1.28018,-2.50459 -1.94601,-3.75302 -0.17822,-0.33415 -1.02401,-1.65615 -1.11201,-1.80701 -0.47899,-0.82113 -0.11401,-0.50044 -0.834,-1.529 -0.11273,-0.16104 -0.30138,-0.25803 -0.417,-0.41701 -1.46119,-2.33789 -0.01,-0.20112 -1.25101,-1.668 -0.86523,-1.02255 -1.53255,-2.15894 -2.36301,-3.19702 -0.2456,-0.307 -0.571,-0.54177 -0.834,-0.834 -0.94347,-1.0483 -1.70193,-2.31933 -2.50201,-3.47502 -0.89105,-1.28706 -2.74974,-3.04287 -4.17002,-3.75301 -0.17087,-0.0854 -0.37302,-0.0841 -0.556,-0.139 -1.08075,-0.32423 -2.09576,-0.55735 -3.19702,-0.69501 -1.40247,-0.17531 -0.218,-0.0263 -0.973,-0.278 -0.47406,-0.15802 -0.92581,-0.0923 -1.39001,-0.278 -0.38408,-0.15363 -0.81988,-0.30922 -1.25101,-0.417 -0.259,-0.0648 -0.5633,0 -0.834,0 -0.7539,0 -1.48383,-0.046 -2.22401,0.139 -1.25835,0.31459 1.57725,-0.0408 -0.97301,0.278 -0.90049,0.11256 0.13953,-0.21858 -1.112,0.139 -0.0996,0.0285 -0.17641,0.11868 -0.278,0.139 -0.66758,0.13352 -1.40966,0.004 -2.08501,0.139 -0.4131,0.0826 -0.8358,0.33396 -1.251,0.417 -0.13631,0.0273 -0.28071,-0.0273 -0.41701,0 -0.24466,0.0489 -0.45829,0.1991 -0.695,0.278 -0.50351,0.16784 -1.04058,0.20768 -1.52901,0.41701 -0.19045,0.0816 -0.35942,0.21247 -0.556,0.278 -0.42834,0.14278 -1.06066,0.18433 -1.52901,0.278 -0.35742,0.0715 -0.75213,-0.06 -1.112,0 -0.37688,0.0628 -0.73735,0.20307 -1.11201,0.278 -0.30889,0.0618 0,-0.18533 -0.556,0 -0.044,0.0147 0.0328,0.10624 0,0.139 -0.051,0.051 -0.34287,-0.0185 -0.417,0 -0.32724,0.0818 -0.64867,0.18534 -0.97301,0.278 z"
       id="path28" /><path
       style="fill:#fde3a7;fill-opacity:1;stroke-width:0.264999;stroke-dasharray:none"
       d="m 195.71288,141.81334 c 0,-0.23257 0.23258,-0.69772 0,-0.69772 -0.23257,0 -0.0564,0.92336 0,0.69772 0.0581,-0.46515 0.11629,-0.9303 0.17443,-1.39545 0.0581,-0.0582 0.13766,-0.10089 0.17444,-0.17443 0.11073,-0.22148 -0.0773,-0.64034 0,-0.87217 0.026,-0.078 0.13765,-0.10088 0.17443,-0.17443 0.052,-0.10401 -0.0822,-0.26664 0,-0.34886 0.0411,-0.0411 0.13332,0.0411 0.17443,0 0.0822,-0.0822 -0.052,-0.24486 0,-0.34887 0.14264,-0.28528 0.37206,-0.88376 0.69773,-1.04659 0.10401,-0.052 0.26664,0.0822 0.34886,0 0.0411,-0.0411 -0.0411,-0.13332 0,-0.17443 0.0822,-0.0822 0.23258,0 0.34887,0 0.39924,0 1.37851,-0.18291 1.74432,0 0.0736,0.0368 0.10088,0.13766 0.17443,0.17443 0.16127,0.0806 0.77451,-0.0976 1.04659,0.17443 0.0109,0.0109 0.4819,0.78937 0.5233,0.87216 0.20932,0.41864 -0.20932,1.15126 0,1.56989 0.14957,0.29914 0.36522,1.18831 0.17443,1.56989 -0.10159,0.20319 -0.24727,0.32011 -0.34886,0.5233 -0.0527,0.10532 0.0806,0.44266 0,0.5233 -0.0411,0.0411 -0.13332,-0.0411 -0.17443,0 -0.0444,0.0444 -0.1115,1.09515 -0.17444,1.22102 -0.10159,0.20319 -0.24727,0.32011 -0.34886,0.5233 -0.052,0.10401 0.052,0.24485 0,0.34886 -0.12592,0.25184 -0.22294,0.44588 -0.34886,0.69773 -0.052,0.10401 0.052,0.24485 0,0.34886 -0.0736,0.1471 -0.27532,0.20177 -0.34887,0.34887 -0.052,0.10401 0.0822,0.26664 0,0.34886 -0.0872,0.0872 -0.26165,0.0872 -0.34886,0.17443 -0.0411,0.0411 0.0411,0.13332 0,0.17444 -0.11065,0.11064 -0.5525,-0.0726 -0.69773,0 -0.16485,0.0824 -1.00398,0.39147 -1.22103,0.17443 -0.0411,-0.0411 0.0411,-0.13332 0,-0.17443 -0.12334,-0.12334 -0.36728,0.078 -0.52329,0 -0.052,-0.026 0.0411,-0.13332 0,-0.17444 -0.0872,-0.0872 -0.26165,-0.0872 -0.34887,-0.17443 -0.0411,-0.0411 0.0411,-0.13332 0,-0.17443 -0.0411,-0.0411 -0.13332,0.0411 -0.17443,0 -0.1397,-0.1397 -0.0858,-1.74149 -0.17443,-1.91875 -0.0368,-0.0736 -0.13766,-0.10089 -0.17443,-0.17443 -0.15883,-0.31766 0.087,-0.87313 0,-1.22103 -0.10267,-0.41066 -0.23258,-0.81402 -0.34887,-1.22103 z"
       id="path29" /><path
       style="fill:#fde3a7;fill-opacity:1;stroke-width:0.264999;stroke-dasharray:none"
       d="m 140.06902,98.903035 c 0.17606,0.703884 0.35149,1.405935 0.5233,2.093185 0.13739,0.54956 0.21147,0.14817 0.34886,0.69773 0.10633,0.42531 0.0382,0.98667 0.17444,1.39545 0.0886,0.26591 0.27036,0.55818 0.34886,0.87217 0.0564,0.22563 -0.0736,0.47708 0,0.69772 0.026,0.078 0.14843,0.0964 0.17443,0.17444 0.19294,0.5788 -0.0177,1.3423 0.17443,1.91875 0.026,0.078 0.13766,0.10089 0.17444,0.17443 0.15214,0.30428 0.0425,1.34862 0.17443,1.74432 0.026,0.078 0.14843,0.0964 0.17443,0.17444 0.0368,0.11032 -0.0282,0.23604 0,0.34886 0.22825,0.91301 0.64529,1.81387 1.04659,2.61648 0.12293,0.24585 0.82164,0.64721 0.87217,0.69773 0.42366,0.42366 -0.0519,0.25614 0.34886,0.5233 0.84693,0.56462 2.0007,1.55936 2.44205,2.44205 0.13808,0.27615 0.52569,0.43967 0.69773,0.69773 0.3441,0.51615 0.88088,0.88525 1.22102,1.39545 0.24301,0.36451 0.75027,1.09913 1.04659,1.39546 0.0272,0.0272 0.4961,0.32166 0.5233,0.34887 0.19153,0.19152 0.906,1.32516 1.04659,1.39545 0.48494,0.24247 0.67314,0.511 1.0466,0.69773 0.21991,0.10996 0.6382,0.0575 0.87216,0.17444 0.23739,0.11869 0.59637,0.2475 0.69773,0.34886 0.0411,0.0411 -0.0411,0.13332 0,0.17443 0.0411,0.0411 0.13332,-0.0411 0.17443,0 0.0411,0.0411 -0.0411,0.13332 0,0.17443 0.0411,0.0411 0.13332,-0.0411 0.17443,0 0.0411,0.0411 -0.0411,0.13332 0,0.17443 0.0411,0.0411 0.13332,-0.0411 0.17444,0 0.0822,0.0822 -0.0822,0.26664 0,0.34887 0.0411,0.0411 0.13331,-0.0411 0.17443,0 0.0411,0.0411 -0.026,0.12243 0,0.17443 0.0735,0.1471 0.29685,0.19285 0.34886,0.34887 0.0368,0.11032 -0.0368,0.23854 0,0.34886 0.052,0.15602 0.27532,0.20177 0.34886,0.34886 0.0894,0.17888 0.085,0.51886 0.17444,0.69773 0.2038,0.40762 0.48002,0.78561 0.69773,1.22103 0.052,0.10401 -0.052,0.24485 0,0.34886 0.0735,0.1471 0.29685,0.19285 0.34886,0.34887 0.0368,0.11032 -0.0368,0.23854 0,0.34886 0.052,0.15602 0.27532,0.20177 0.34886,0.34886 0.1348,0.26959 0.21408,0.60258 0.34887,0.87217 0.13304,0.26608 0.39322,0.43757 0.5233,0.69772 0.12665,0.25333 0.35238,1.05012 0.52329,1.22103 0.0411,0.0411 0.13332,-0.0411 0.17443,0 0.0822,0.0822 -0.0822,0.26664 0,0.34886 0.0411,0.0411 0.13332,-0.0411 0.17443,0 0.0411,0.0411 -0.026,0.12243 0,0.17444 0.12218,0.24434 0.50295,0.50294 0.69774,0.69772 0.34555,-0.0174 0.0825,0.25694 0.17443,0.34887 0.3609,0.36091 -0.0141,-0.55151 0.34886,0.17443 0.026,0.052 -0.0411,0.13332 0,0.17443 0.0253,0.0253 1.21096,1.04157 1.22103,1.0466 0.052,0.026 0.13331,-0.0411 0.17443,0 0.009,0.009 0.33941,0.51384 0.34886,0.52329 0.0411,0.0411 0.12243,-0.026 0.17443,0 0.72595,0.36298 -0.18647,-0.012 0.17444,0.34887 0.0411,0.0411 0.12242,-0.026 0.17443,0 0.20932,0.10466 0.31398,0.41863 0.5233,0.52329 0.052,0.026 0.13331,-0.0411 0.17443,0 0.0872,0.0872 0.0872,0.26165 0.17443,0.34887 0.1011,0.1011 0.59663,0.24776 0.69773,0.34886 0.0872,0.0872 0.0872,0.26165 0.17443,0.34887 0.0579,0.0579 0.59473,0.29736 0.69773,0.34886 0.30589,0.15295 0.55746,0.54038 0.87216,0.69773 0.10572,0.0529 0.4502,0.10134 0.5233,0.17443 0.0411,0.0411 -0.0411,0.13332 0,0.17443 0.0822,0.0822 0.24485,-0.052 0.34886,0 0.0736,0.0368 0.10089,0.13766 0.17443,0.17444 0.10401,0.052 0.26664,-0.0822 0.34887,0 0.0411,0.0411 -0.0411,0.13331 0,0.17443 0.23257,0.23257 0.98845,-0.0582 1.22102,0.17443 0.0411,0.0411 -0.052,0.14843 0,0.17443 0.18606,0.093 0.51167,-0.093 0.69773,0 0.93456,0.46728 2.04694,0.34887 3.13978,0.34887 0.70276,0 2.16627,0.20821 2.79091,0 0.62255,-0.20752 1.29998,-0.31704 1.91876,-0.5233 1.08392,-0.36131 2.42883,-1.55932 3.31421,-2.26762 0.36887,-0.2951 0.89205,-0.54318 1.22102,-0.87216 0.33704,-0.33703 0.53513,-0.88399 0.87217,-1.22102 0.0411,-0.0411 0.14217,0.0484 0.17443,0 0.44743,-0.67115 0.1588,-1.85623 0.34886,-2.61649 0.17496,-0.69984 0.40516,-1.38435 0.5233,-2.09318 0.0478,-0.28677 -0.0705,-0.59012 0,-0.87216 0.13584,-0.54339 0.26215,-0.96292 0.34886,-1.56989 0.065,-0.45498 -0.0755,-0.94235 0,-1.39546 0.0302,-0.18136 0.14421,-0.34193 0.17443,-0.5233 0.0742,-0.44544 -0.15031,-1.50318 -0.17443,-1.74432 -0.0636,-0.63641 0.0531,-1.28137 0,-1.91875 -0.0199,-0.23891 -0.15452,-0.45883 -0.17443,-0.69773 -0.11482,-1.37786 -0.1346,-2.61925 -0.34887,-4.01194 -0.0923,-0.59998 -0.4147,-1.14707 -0.52329,-1.74432 -0.11119,-0.61155 -0.15147,-1.18659 -0.5233,-1.74432 -0.38161,-0.57242 -0.79089,-1.20666 -1.22102,-1.74432 -0.769,-0.96125 -2.03735,-1.75123 -2.44205,-2.96535 -0.7138,-2.1414 -1.35134,-5.09548 -3.13978,-6.62842 -1.60094,-1.37224 -3.45507,-2.377458 -5.23297,-3.488645 -0.63959,-0.399751 -1.2601,-0.855109 -1.91875,-1.221025 -0.46682,-0.259347 -1.49282,-0.620662 -1.91875,-1.046594 -0.0919,-0.09194 -0.0825,-0.256932 -0.17444,-0.348864 -0.0919,-0.09193 -0.25693,-0.0825 -0.34886,-0.174432 -0.41223,-0.412226 -0.55369,-0.796395 -0.87216,-1.221025 -0.41125,-0.548336 -0.96452,-1.031224 -1.39546,-1.569889 -0.69047,-0.863085 0.0345,0.208893 -0.87216,-0.697731 -0.14824,-0.148238 -0.20062,-0.375057 -0.34886,-0.523295 -0.0919,-0.09193 -0.25693,-0.0825 -0.34887,-0.174432 -0.51944,-0.519446 0.26089,-0.227221 -0.52329,-0.69773 -0.15767,-0.0946 -0.36563,-0.07983 -0.5233,-0.174432 -1.62243,-0.973457 1.22249,0.349597 -0.87216,-0.697727 -0.32891,-0.164457 -0.71768,-0.18441 -1.0466,-0.348864 -0.68603,-0.343019 -0.31585,-0.37715 -1.04659,-0.523298 -0.11403,-0.02281 -0.23854,0.03677 -0.34886,0 -0.27725,-0.09242 -0.61228,-0.393354 -0.87216,-0.523296 -0.10176,-0.05088 -1.15139,-0.06964 -1.22103,0 -0.0411,0.04111 0.026,0.122426 0,0.174432 -0.36297,0.725945 0.012,-0.186473 -0.34886,0.174432 -0.0411,0.04111 0.026,0.122428 0,0.174432 -0.0562,0.112292 -0.95179,0.824756 -1.04659,0.872162 -0.41133,0.20566 -0.98414,0.143203 -1.39546,0.348863 -1.16619,0.583094 -2.35316,1.237459 -3.48864,1.918753 -0.21154,0.126918 -0.31805,0.386461 -0.5233,0.523299 -0.0484,0.03225 -0.13332,-0.04111 -0.17443,0 -0.20851,0.208505 -0.4071,0.639762 -0.5233,0.872159 -0.24421,0.48841 -0.97682,0.732615 -1.22103,1.221026 -0.026,0.05201 0.0411,0.133318 0,0.174431 -0.0555,0.05554 -0.79701,0.473197 -0.87216,0.523299 -0.4013,0.267533 -0.66051,0.757031 -1.04659,1.046591 0.27755,0.738163 -0.54919,0.249838 -0.69773,0.348863 -0.77504,0.5167 -1.47467,1.347849 -2.26762,1.744324 -0.72594,0.362972 0.18648,-0.01204 -0.17443,0.348864 -0.0411,0.04111 -0.12243,-0.02601 -0.17443,0 -0.52006,0.260027 -0.92232,0.708636 -1.39546,1.046594 z"
       id="path30" /><path
       style="fill:#fde3a7;fill-opacity:1;stroke-width:0.264999;stroke-dasharray:none"
       d="m 198.85266,118.265 c 1.1622,0.0828 2.37712,0.071 3.48864,0.34887 0.85727,0.21431 0.82827,-0.10916 1.74432,0.34886 0.10532,0.0527 0.44267,-0.0806 0.5233,0 0.0411,0.0411 -0.0411,0.13332 0,0.17443 0.14536,0.14536 0.7268,-0.14536 0.87216,0 0.0411,0.0411 -0.0411,0.13332 0,0.17444 0.11065,0.11064 0.5525,-0.0726 0.69773,0 0.25185,0.12592 0.44589,0.22294 0.69773,0.34886 0.10532,0.0527 0.44266,-0.0806 0.52329,0 0.0411,0.0411 -0.0411,0.13332 0,0.17443 0.0822,0.0822 0.24486,-0.052 0.34887,0 0.0735,0.0368 0.0964,0.14843 0.17443,0.17444 0.11032,0.0368 0.23855,-0.0368 0.34887,0 0.64471,0.2149 1.04573,0.81372 1.74432,1.04659 0.11032,0.0368 0.23854,-0.0368 0.34886,0 0.078,0.026 0.10089,0.13766 0.17444,0.17443 0.10531,0.0527 0.44266,-0.0806 0.52329,0 0.0411,0.0411 -0.0411,0.13332 0,0.17443 0.0806,0.0806 0.41798,-0.0527 0.5233,0 0.0736,0.0368 0.10088,0.13766 0.17443,0.17444 0.10401,0.052 0.24485,-0.052 0.34887,0 0.14709,0.0735 0.20176,0.27531 0.34886,0.34886 0.16434,0.0822 1.33138,0.45922 1.39546,0.52329 0.0411,0.0411 -0.0411,0.13332 0,0.17444 0.0411,0.0411 0.12242,-0.026 0.17443,0 0.14709,0.0735 0.20177,0.27531 0.34886,0.34886 0.20783,0.10392 0.71464,0.19134 0.87216,0.34887 0.0411,0.0411 -0.0411,0.13331 0,0.17443 0.0411,0.0411 0.12243,-0.026 0.17444,0 0.20931,0.10466 0.31397,0.41864 0.52329,0.52329 0.37806,0.18904 0.74387,0.54637 1.04659,0.69773 0.10572,0.0529 0.45021,0.10134 0.5233,0.17444 0.0411,0.0411 -0.0411,0.13331 0,0.17443 0.0411,0.0411 0.13332,-0.0411 0.17443,0 0.0411,0.0411 -0.0411,0.13332 0,0.17443 0.0411,0.0411 0.13332,-0.0411 0.17443,0 0.0411,0.0411 -0.0411,0.13332 0,0.17443 0.0411,0.0411 0.12243,-0.026 0.17444,0 0.20932,0.10466 0.31397,0.41864 0.52329,0.5233 0.052,0.026 0.13332,-0.0411 0.17444,0 0.0411,0.0411 -0.026,0.12242 0,0.17443 0.0638,0.12766 0.89939,0.62413 1.04659,0.69773 0.38568,0.19284 0.0541,0.10826 0.17443,0.34886 0.36297,0.72595 -0.012,-0.18647 0.34887,0.17443 0.0411,0.0411 -0.0411,0.13332 0,0.17444 0.0581,0.0581 0.46515,0.11629 0.52329,0.17443 0.0731,0.0731 0.12158,0.41758 0.17443,0.5233 0.1272,0.25439 0.27905,0.27904 0.34887,0.34886 0.0822,0.0822 -0.0822,0.26664 0,0.34886 0.0411,0.0411 0.13332,-0.0411 0.17443,0 0.0822,0.0822 -0.0822,0.26664 0,0.34887 0.0411,0.0411 0.13332,-0.0411 0.17443,0 0.0822,0.0822 -0.052,0.24485 0,0.34886 0.2028,0.4056 0.3205,0.81543 0.5233,1.22103 0.11629,0.23258 -0.11629,0.63958 0,0.87216 0.19872,0.39743 0.17443,0.73778 0.17443,1.22102 0,0.13659 0.087,0.78513 0,0.87217 -0.0411,0.0411 -0.13332,-0.0411 -0.17443,0 -0.006,0.006 -0.11233,0.46119 -0.17443,0.52329 -0.1011,0.1011 -0.59663,0.24777 -0.69773,0.34887 -0.0872,0.0872 -0.0872,0.26164 -0.17443,0.34886 -0.0487,0.0487 -1.21882,0.60941 -1.39546,0.69773 -0.10401,0.052 -0.24485,-0.052 -0.34887,0 -1.02097,0.51049 -1.13324,0.10888 -2.09318,0.34886 -0.10835,0.0271 -0.48809,0.22685 -0.69773,0.17443 -0.60229,-0.15057 -1.16979,-0.15735 -1.74432,-0.34886 -0.22064,-0.0736 -0.4721,0.0564 -0.69773,0 -0.0798,-0.02 -0.0964,-0.14843 -0.17443,-0.17443 -0.35093,-0.11698 -0.88667,-0.007 -1.22103,-0.17443 -0.20319,-0.1016 -0.3201,-0.24727 -0.52329,-0.34887 -0.052,-0.026 -0.13332,0.0411 -0.17443,0 -0.0411,-0.0411 0.0411,-0.13331 0,-0.17443 -0.0411,-0.0411 -0.13332,0.0411 -0.17444,0 -0.0411,-0.0411 0.026,-0.12243 0,-0.17443 -0.0735,-0.1471 -0.27531,-0.20177 -0.34886,-0.34887 -0.052,-0.10401 0.0822,-0.26663 0,-0.34886 -0.0411,-0.0411 -0.13332,0.0411 -0.17443,0 -0.0822,-0.0822 0.0822,-0.26664 0,-0.34886 -0.19105,-0.19105 -0.94449,-0.25669 -1.22103,-0.34887 -0.24668,-0.0822 -0.51386,-0.165 -0.69773,-0.34886 -0.0411,-0.0411 0.0411,-0.13332 0,-0.17444 -0.0822,-0.0822 -0.26663,0.0822 -0.34886,0 -0.0411,-0.0411 0.0411,-0.13331 0,-0.17443 -0.13002,-0.13001 -0.37031,-0.0724 -0.5233,-0.17443 -0.19243,-0.12829 -0.31723,-0.42026 -0.5233,-0.5233 -0.052,-0.026 -0.13331,0.0411 -0.17443,0 -0.3609,-0.3609 0.55152,0.0141 -0.17443,-0.34886 -0.27446,-0.13723 -0.58127,-0.32937 -0.87216,-0.5233 -0.25805,-0.17203 -0.42157,-0.55965 -0.69773,-0.69773 -0.052,-0.026 -0.13332,0.0411 -0.17443,0 -0.0411,-0.0411 0.0411,-0.13331 0,-0.17443 -0.0411,-0.0411 -0.13332,0.0411 -0.17443,0 -0.0411,-0.0411 0.0411,-0.13332 0,-0.17443 -0.0411,-0.0411 -0.12243,0.026 -0.17444,0 -0.20319,-0.1016 -0.3201,-0.24727 -0.52329,-0.34886 -0.13955,-0.0698 -0.38375,0.0698 -0.5233,0 -0.36118,-0.18059 -0.68968,-0.34484 -1.04659,-0.5233 -0.10401,-0.052 -0.24485,0.052 -0.34887,0 -0.20319,-0.1016 -0.3201,-0.24727 -0.52329,-0.34887 -0.32808,-0.16403 -2.00687,-0.28322 -2.44205,-0.17443 -0.30126,0.0753 -0.57689,0.25044 -0.87216,0.34887 -0.51021,0.17007 -1.53812,0.0357 -2.09319,0.17443 -0.20287,0.0507 -0.49486,0.29815 -0.69773,0.34886 -0.47588,0.11897 -0.74514,0.0555 -1.22102,0.17444 -0.23481,0.0587 -0.61137,0.41898 -0.87216,0.52329 -0.57374,0.2295 -0.84372,0.42186 -1.39546,0.69773 -0.28096,0.14048 -0.74976,0.20045 -1.04659,0.34886 -0.3521,0.17605 -0.6429,0.42238 -1.0466,0.5233 -1.17101,0.29276 -2.94483,-0.20692 -4.18637,0 -0.81763,0.13627 -1.82885,0.26076 -2.61648,0.5233 -0.90744,0.30248 -1.9171,1.04714 -2.96535,0.69773 -0.22636,-0.0755 -0.49118,-0.3856 -0.69773,-0.5233 -0.74958,-0.49972 -0.84205,-1.27502 -1.04659,-2.09319 -0.0564,-0.22563 0.0564,-0.47209 0,-0.69772 -0.1265,-0.50601 -0.35752,-1.19506 -0.17443,-1.74433 0.026,-0.078 0.14843,-0.0964 0.17443,-0.17443 0.13855,-0.41563 -0.13855,-0.28209 0,-0.69773 0.026,-0.078 0.13766,-0.10088 0.17443,-0.17443 0.0733,-0.14654 0.0786,-0.77627 0.17443,-0.87216 0.0411,-0.0411 0.14843,0.052 0.17444,0 0.052,-0.10401 -0.052,-0.24485 0,-0.34887 0.026,-0.052 0.13331,0.0411 0.17443,0 0.0703,-0.0703 0.11413,-0.43285 0.17443,-0.52329 0.0912,-0.13684 0.25764,-0.21203 0.34887,-0.34886 0.0322,-0.0484 -0.026,-0.12243 0,-0.17444 0.20412,-0.40825 0.79404,-0.66777 1.04659,-1.04659 0.42984,-0.64477 0.93544,-1.40317 1.39545,-2.09318 0.0912,-0.13684 0.27532,-0.20178 0.34887,-0.34887 0.026,-0.052 -0.0411,-0.13332 0,-0.17443 0.0174,-0.0174 0.95305,-0.20562 1.04659,-0.17443 0.078,0.026 0.10089,0.13766 0.17443,0.17443 0.0965,0.0482 0.62065,0.14874 0.69773,0.17443 0.33777,0.11259 2.5101,0.0936 2.79092,0 0.078,-0.026 0.0964,-0.14843 0.17443,-0.17443 0.22064,-0.0735 0.46967,0.0456 0.69773,0 0.17443,-0.0581 0.34886,-0.11629 0.5233,-0.17443 0.0581,-0.0581 0.0964,-0.14843 0.17443,-0.17444 0.30479,-0.10159 0.56737,-0.0728 0.87216,-0.17443 0.27725,-0.0924 0.61228,-0.39335 0.87216,-0.52329 0.41423,-0.20712 0.96572,-0.20563 1.39546,-0.34887 0.25736,-0.0858 0.47828,-0.27571 0.69772,-0.34886 0.16549,-0.0552 0.36729,0.078 0.5233,0 0.60949,-0.30475 1.30927,-0.39299 1.91876,-0.69773 0.27371,-0.13686 0.75685,0.0966 1.04659,0 0.76902,-0.25634 0.55981,-0.17965 1.74432,-0.34887 z"
       id="path31" /><path
       style="fill:#fde3a7;fill-opacity:1;stroke-width:0.264999;stroke-dasharray:none"
       d="m 141.63891,97.856441 c -1.46676,0.744699 -2.94484,1.559637 -4.3608,2.267619 -0.25543,0.12771 -0.60895,0.0867 -0.87216,0.17443 -0.46913,0.15638 -0.9168,0.40363 -1.39546,0.5233 -0.11282,0.0282 -0.23854,-0.0368 -0.34886,0 -0.078,0.026 -0.11629,0.11628 -0.17444,0.17443 -0.11628,0.0581 -0.22273,0.1429 -0.34886,0.17443 -1.30221,0.32556 -2.68109,1.14781 -3.83751,1.91875 -0.56715,0.37811 -1.17924,0.66988 -1.74432,1.0466 -0.25805,0.17204 -0.42157,0.55965 -0.69773,0.69773 -0.052,0.026 -0.13332,-0.0411 -0.17443,0 -0.0411,0.0411 0.026,0.12242 0,0.17443 -0.0736,0.14709 -0.27532,0.20177 -0.34887,0.34886 -0.052,0.10401 0.052,0.24486 0,0.34887 -0.15047,0.30095 -0.19879,0.57201 -0.34886,0.87216 -0.27587,0.55174 0.93632,1.28518 1.22103,1.56989 1.64522,1.64522 2.99383,3.49889 4.53523,5.23296 0.43704,0.49167 0.96228,0.9004 1.39546,1.39546 0.56772,0.64882 0.73615,1.41436 1.22103,2.09318 0.14338,0.20074 0.38646,0.31805 0.52329,0.5233 0.10199,0.15299 0.0922,0.35884 0.17443,0.5233 0.18751,0.37502 0.48971,0.68255 0.69773,1.04659 0.2197,0.38447 0.3036,0.83656 0.5233,1.22103 0.14424,0.25241 0.39328,0.4377 0.52329,0.69773 0.052,0.10401 -0.0598,0.24914 0,0.34886 0.12692,0.21153 0.3692,0.33067 0.5233,0.5233 0.28744,0.3593 0.54784,0.89669 0.87216,1.22102 0.28116,0.28116 0.76424,0.5898 1.0466,0.87216 0.31682,0.31682 0.17026,0.34678 0.52329,0.5233 0.34559,0.17279 0.54916,0.65682 0.87216,0.87216 0.45413,0.30275 0.95944,0.54515 1.39546,0.87216 0.6768,0.5076 1.16793,1.16793 1.74432,1.74432 0.68295,0.68295 1.49025,1.33951 2.09319,2.09319 0.37792,0.4724 0.86121,0.91571 1.22102,1.39545 0.17649,0.23533 0.31667,0.66553 0.5233,0.87217 0.0411,0.0411 0.13332,-0.0411 0.17443,0 0.495,0.495 1.10534,1.33851 1.39546,1.91875 0.14345,0.28691 0.55427,0.23639 0.69773,0.5233 0.27359,0.54719 0.773,1.0227 1.04659,1.56988 0.16057,0.32114 0.36273,0.0277 0.5233,0.34887 0.3395,0.67901 1.08768,1.30657 1.74432,1.74432 0.59297,0.39531 0.0936,0.0234 0.69773,0.17443 0.51192,0.12798 0.88018,0.56891 1.39545,0.69773 0.80666,0.20166 1.72096,0.16275 2.44205,0.5233 0.10402,0.052 0.24486,-0.052 0.34887,0 0.23362,0.11681 0.2417,0.41613 0.34886,0.5233 0.009,0.009 0.51385,0.33941 0.5233,0.34886 0.0411,0.0411 -0.0411,0.13332 0,0.17443 0.0822,0.0822 0.26664,-0.0822 0.34886,0 0.0411,0.0411 -0.0411,0.13332 0,0.17443 0.0582,0.0581 0.46516,0.11629 0.5233,0.17444 0.0411,0.0411 -0.0411,0.13331 0,0.17443 0.0872,0.0872 0.43608,-0.0872 0.5233,0 0.0411,0.0411 -0.0411,0.13332 0,0.17443 0.0822,0.0822 0.24485,-0.052 0.34886,0 0.0736,0.0368 0.10089,0.13766 0.17443,0.17443 0.18606,0.093 0.51167,-0.093 0.69773,0 0.36927,0.18464 0.63269,0.24539 1.04659,0.34887 0.45591,0.11397 0.8346,0.50451 1.22103,0.69773 0.43247,0.21623 1.33776,-0.0389 1.74432,-0.17444 0.15746,-0.0525 1.27066,-0.11458 1.56989,-0.17443 1.19406,-0.23881 2.33834,-0.83759 3.48864,-1.22102 0.75117,-0.25039 0.93557,-0.11893 1.74433,-0.5233 0.14709,-0.0736 0.20607,-0.26727 0.34886,-0.34886 0.38041,-0.37122 0.96413,-0.27683 1.39546,-0.5233 0.7137,-0.40783 2.16704,-1.61703 2.44205,-2.44205 0.1293,-0.38792 0.21785,-0.82798 0.34886,-1.22103 0.049,-0.1471 -0.0689,-0.38555 0,-0.52329 0.34779,-0.69559 0.66002,-1.49448 1.04659,-2.26762 0.92935,-1.85869 1.68984,-3.70129 2.44205,-5.58183 0.0305,-0.0764 0.11629,-0.11629 0.17444,-0.17443 0.0581,-0.11629 0.13331,-0.22552 0.17443,-0.34887 0.0872,-0.26164 -0.0872,-0.61051 0,-0.87216 0.25325,-0.75975 0.0178,-1.48418 0.17443,-2.26762 0.4609,-2.30447 0.0742,-6.11637 -0.87216,-8.19831 -0.52863,-1.16299 -1.24176,-2.40544 -1.91875,-3.48864 -0.44431,-0.71088 -0.95346,-1.38598 -1.39546,-2.09319 -0.22802,-0.36482 -0.37765,-0.90094 -0.69773,-1.22102 -0.0919,-0.0919 -0.26765,-0.0729 -0.34886,-0.17443 -0.54111,-0.67639 -0.84456,-1.57899 -1.39546,-2.26762 -1.25195,-1.56494 -2.93106,-2.8661 -4.53524,-4.01194 -0.26765,-0.19118 -0.4346,-0.50038 -0.69773,-0.69773 -0.40813,-0.3061 -0.95651,-0.43436 -1.39545,-0.69773 -0.71812,-0.43087 -1.57122,-0.62875 -2.26762,-1.04659 -0.14102,-0.0846 -0.20785,-0.264255 -0.34887,-0.348866 -0.47839,-0.287036 -3.41355,-1.010256 -4.18637,-1.221026 -1.39127,-0.379436 -2.75228,-0.887248 -4.18637,-1.046591 -1.75482,-0.194979 -3.63804,0 -5.4074,0 -0.55458,0 -1.19837,0.09099 -1.74432,0 -0.66221,-0.110368 -1.29333,-0.192511 -1.91875,-0.348866 -0.58955,-0.147386 -1.34369,0.191691 -1.91876,0 -0.078,-0.02601 -0.10088,-0.137658 -0.17443,-0.174432 -0.13078,-0.06539 -1.09024,-0.06539 -1.22102,0 -0.45296,0.226481 -0.64903,0.04191 -1.04659,0.174432 -0.97508,0.325027 -1.58586,0.550497 -2.61649,0.69773 z"
       id="path32" /></g><g
     id="layer3"
     style="display:inline;fill:#502d16"
     transform="translate(-19.719559,-8.0780029)"><path
       style="display:inline;fill:#502d16"
       d="m 66.218392,200.79654 c -12.291731,-0.2378 -34.287906,-0.94454 -40.818388,-1.3115 -2.546614,-0.1431 -6.237552,-0.34223 -8.202083,-0.44252 -4.807711,-0.24544 -4.100826,-0.3497 10.31875,-1.52194 6.262986,-0.50915 19.777196,-1.14363 33.866665,-1.59 43.641264,-1.38263 108.117014,-0.32307 129.379624,2.12614 1.81812,0.20943 3.99101,0.38078 4.82864,0.38078 0.83893,0 1.52298,0.11884 1.52298,0.26458 0,0.14552 -0.32742,0.26503 -0.72761,0.26559 -0.40018,5.5e-4 -5.31151,0.23447 -10.91406,0.51983 -9.65889,0.49196 -17.32599,0.73457 -42.06875,1.3312 -12.18659,0.29386 -61.584318,0.27967 -77.185768,-0.0222 z M 38.321215,189.19201 c -2.285423,-0.44512 -3.380625,-2.09795 -3.390401,-5.11666 -0.0066,-2.03163 0.443118,-3.35799 1.355091,-3.99676 0.342677,-0.24002 1.608568,-0.80836 2.813091,-1.26298 1.455902,-0.54949 2.532574,-1.15899 3.211859,-1.81821 1.267443,-1.23001 3.038309,-3.81286 3.890625,-5.67456 l 0.644092,-1.40689 3.233986,-0.59488 c 7.267449,-1.33684 12.431783,-3.28007 17.333942,-6.5224 2.690884,-1.77977 4.590276,-3.51863 7.636618,-6.99117 1.287279,-1.46738 2.670287,-2.83864 3.073349,-3.04723 1.443799,-0.74722 5.514965,-1.41018 8.686093,-1.41446 4.313454,-0.006 7.135139,0.26306 7.301179,0.69576 0.273429,0.71254 -3.068474,6.88175 -5.47,10.09771 -2.581112,3.45644 -4.746957,5.46121 -7.942821,7.35207 -3.721454,2.20184 -5.454982,2.6453 -14.306935,3.65993 -10.728406,1.22972 -11.048083,1.40828 -16.469056,9.19905 -3.478925,4.99975 -5.044635,6.22359 -8.726615,6.82116 -0.902055,0.1464 -1.699632,0.25338 -1.772392,0.23775 -0.07276,-0.0156 -0.568527,-0.11339 -1.101705,-0.21723 z m -21.247707,-5.72844 c -2.147747,-0.78625 -3.31517,-2.75366 -3.31517,-5.58691 0,-1.7039 0.536724,-3.09067 1.635645,-4.22614 0.877679,-0.90687 1.386149,-1.15504 3.692671,-1.80228 1.344969,-0.37742 1.636132,-0.59972 2.957144,-2.25778 2.026552,-2.5436 3.990924,-5.87366 5.515272,-9.34964 0.70916,-1.61711 1.513577,-3.16439 1.787592,-3.4384 0.337944,-0.33795 1.549363,-0.69928 3.76588,-1.12325 3.338215,-0.63852 3.801008,-0.77686 6.274747,-1.87563 1.74011,-0.77291 4.254119,-3.12263 5.450021,-5.09388 0.490174,-0.80797 1.447662,-2.77872 2.12775,-4.37945 1.986925,-4.67665 3.979587,-8.29939 6.238297,-11.34149 1.160027,-1.56237 2.044963,-2.9445 1.966525,-3.07142 -0.07844,-0.12691 -0.528202,-0.30763 -0.999476,-0.40158 -1.882832,-0.37536 -6.222557,-1.8185 -7.678261,-2.55334 -5.351591,-2.70147 -13.302558,-9.20711 -16.690329,-13.65635 -1.644571,-2.15986 -3.464919,-5.65095 -3.876382,-7.43419 -0.321473,-1.39323 -0.251166,-5.16346 0.10289,-5.51752 0.304242,-0.30424 0.856498,0.47718 2.563282,3.62693 3.037811,5.60608 5.188615,8.24819 9.111522,11.19287 6.264826,4.70262 13.943291,6.41525 25.714859,5.73551 2.612934,-0.15088 4.878241,-0.43328 6.03514,-0.75236 5.716167,-1.57653 7.281742,-1.94209 11.377082,-2.65656 2.473855,-0.43158 6.283854,-1.03762 8.466667,-1.34675 13.363114,-1.8925 22.070314,-6.24916 33.602084,-16.812871 5.77128,-5.286799 11.88952,-10.442885 15.22354,-12.829498 2.97142,-2.127041 6.90226,-4.635662 8.31706,-5.307853 0.6129,-0.291195 0.8266,-0.607175 0.96845,-1.43192 0.50503,-2.936308 2.29663,-5.947886 5.30231,-8.912892 2.14274,-2.113738 4.8543,-3.717803 6.87392,-4.066373 1.1211,-0.193493 1.00053,-0.421129 1.82974,3.454326 0.62769,2.933562 0.88295,3.571875 1.42841,3.571875 0.20328,0 1.27841,-1.07118 2.38918,-2.3804 1.11076,-1.309219 2.51783,-2.719085 3.12681,-3.133035 1.25965,-0.856232 2.75485,-1.431993 2.94015,-1.13217 0.0686,0.111077 0.0237,0.967169 -0.0999,1.902427 -0.12359,0.935258 -0.3001,2.611614 -0.39225,3.725235 l -0.16755,2.024766 1.79463,0.577999 c 3.40509,1.096674 5.83908,2.57207 8.28168,5.020051 2.36156,2.366757 3.67323,4.437835 4.24159,6.697301 0.18185,0.72294 0.57936,1.469335 0.92901,1.744369 0.33614,0.264404 2.0774,0.989451 3.86947,1.611215 7.41414,2.57236 8.07682,3.366016 7.40115,8.864025 -0.54042,4.397513 -1.9974,7.411893 -4.88276,10.102063 -3.13682,2.92461 -5.58902,3.79907 -10.65362,3.79907 -2.57978,0 -3.74728,-0.13484 -5.92721,-0.68456 -1.49305,-0.37651 -2.96918,-0.61026 -3.28028,-0.51946 -0.3111,0.0908 -1.92188,0.51768 -3.5795,0.94862 -5.77796,1.50212 -8.78207,3.57418 -10.4948,7.23869 -1.01474,2.17113 -3.18734,11.65538 -2.62008,11.4377 0.3052,-0.11712 2.7059,-0.52123 9.77874,-1.64608 7.40966,-1.17841 10.34579,-0.48017 18.78542,4.46732 6.53687,3.83205 8.64345,5.50341 9.89419,7.85005 2.80228,5.25762 -0.51196,9.84933 -6.84453,9.48274 -2.51297,-0.14547 -4.03213,-0.91323 -8.48994,-4.29066 -1.66451,-1.26111 -3.66623,-2.60657 -4.44825,-2.98991 -3.38698,-1.66026 -6.12592,-1.02062 -18.02501,4.20947 -3.61107,1.5872 -8.52542,3.22479 -11.46492,3.82041 -6.10036,1.23609 -12.17936,-0.6201 -16.70406,-5.10049 -2.96937,-2.9403 -4.01333,-5.02112 -4.33778,-8.64608 -0.19172,-2.14209 2.09655,-0.24926 1.03789,0.80941 -0.73531,0.73531 -3.72757,0.14262 -4.54338,-0.35123 -0.34534,-0.20905 -0.14048,-0.70224 -0.54658,-0.46116 -0.59841,-0.0113 -0.009,-0.96322 -0.013,-1.32427 -0.35287,0.11049 -4.81092,-5.70606 -5.7539,-8.28102 -0.29039,-0.94016 -0.59907,-2.86408 -0.68597,-4.27538 l -0.15799,-2.56599 0.67053,1.38889 c 1.27597,2.64297 3.91206,5.44462 6.97751,7.41575 1.7021,1.09448 3.75935,1.6464 6.13677,1.6464 0.98116,0 1.10317,0.0614 0.92035,0.46302 -0.73502,1.61469 -0.15023,5.70696 1.23739,8.65899 1.78657,3.80076 5.7933,6.24913 10.82301,6.61354 4.23193,0.30662 7.19575,-0.51726 19.97604,-5.55288 9.20907,-3.62851 10.81719,-3.99009 13.58519,-3.05454 1.57897,0.53367 5.4978,2.8959 9.69814,5.84594 2.10451,1.47806 3.69199,2.10718 5.31716,2.10718 1.51138,0 1.85448,-0.16548 2.49635,-1.20405 1.24795,-2.01923 -0.50821,-4.38755 -5.5576,-7.49482 -4.55481,-2.80291 -9.52888,-5.2284 -11.72341,-5.71664 -1.83698,-0.40869 -2.23504,-0.40916 -5.6471,-0.007 -6.44613,0.76026 -15.86686,2.24148 -18.493,2.90766 -4.55777,1.15617 -8.22065,2.6404 -10.47859,4.24603 l -1.2237,0.87017 -0.002,-0.7034 c -0.002,-0.76758 0.93581,-2.72357 1.77402,-3.7003 0.55101,-0.64208 4.27789,-2.69165 4.89442,-2.69165 0.19488,0 0.4266,-0.18833 0.51493,-0.41851 0.33075,-0.86193 0.16164,-7.13922 -0.23317,-8.655 -0.76372,-2.93213 -2.8432,-6.59012 -5.11895,-9.00469 -2.0642,-2.19013 -8.65146,-6.29559 -10.70535,-6.67203 -1.81477,-0.33263 -0.85966,-0.38529 2.08259,-0.11485 3.76943,0.34648 5.37178,0.67758 7.78548,1.60873 2.28448,0.88131 4.14939,2.26264 5.36711,3.97539 l 0.8506,1.19637 0.005,-3.32697 c 0.004,-2.54677 0.12102,-3.66824 0.50018,-4.78218 0.60814,-1.78666 2.22874,-5.01502 3.32046,-6.61459 0.44693,-0.65484 1.17976,-2.381248 1.62851,-3.836456 1.0132,-3.285612 2.64228,-6.68435 3.68087,-7.679381 0.89998,-0.862241 0.93734,-0.814855 0.39013,0.494821 -0.7988,1.911794 -0.2696,6.614327 1.0462,9.296611 1.4366,2.928525 5.84014,6.095785 9.57552,6.887195 0.99753,0.21135 3.24244,0.38719 4.98869,0.39077 2.68629,0.005 3.75381,0.14533 6.93531,0.9085 5.08696,1.22025 6.76716,1.38002 8.67627,0.82503 1.91025,-0.55533 3.23562,-1.38754 4.42766,-2.78016 1.08997,-1.27338 2.41721,-3.68937 2.79738,-5.09207 0.24193,-0.89266 0.21418,-0.99778 -0.30503,-1.155189 -1.77602,-0.538456 -3.29308,-2.793436 -2.5133,-3.735798 0.19504,-0.235711 0.80537,-0.630648 1.35628,-0.877639 l 1.00165,-0.449073 -1.66311,-0.343644 c -2.12376,-0.438826 -6.00482,-2.091864 -7.777,-3.312409 -1.39589,-0.961385 -1.6953,-1.439519 -2.23183,-3.564022 -0.978,-3.872571 -4.65271,-7.125242 -10.23613,-9.060508 -2.04749,-0.709683 -2.76403,-0.818826 -6.09564,-0.928492 l -3.77541,-0.124275 -0.76318,-0.92586 c -0.41974,-0.509223 -1.01807,-1.597252 -1.32961,-2.417841 -0.92671,-2.44089 -1.18538,-2.94719 -1.50571,-2.94719 -0.72771,0 -4.44922,4.812884 -5.38679,6.966513 -0.80534,1.849908 -1.20267,5.595768 -0.83178,7.841615 0.35101,2.125426 0.17366,2.654371 -0.88997,2.654371 -0.70528,0 -2.41724,-1.779546 -2.66619,-2.771454 -0.21658,-0.862908 -0.69402,-0.843083 -2.05145,0.08518 -0.60587,0.414322 -2.17315,1.453729 -3.48283,2.309794 -1.30969,0.856065 -3.25665,2.273246 -4.32657,3.149292 -1.06993,0.876045 -2.33557,1.890465 -2.81254,2.254267 -2.2689,1.730576 -3.02561,2.334641 -4.44375,3.547361 -0.84078,0.71899 -2.40367,2.149731 -3.47309,3.179431 -3.8359,3.69341 -5.5878,5.32231 -6.42422,5.97321 -0.4675,0.3638 -1.54856,1.20933 -2.40237,1.87895 -6.44038,5.05106 -12.9743,8.23076 -21.096628,10.26657 -2.400822,0.60175 -9.717559,1.85427 -15.610416,2.67229 -6.24255,0.86655 -12.990667,3.05766 -16.697285,5.4216 -3.926067,2.50389 -8.666316,8.0224 -11.415898,13.29018 -0.945927,1.81225 -2.296736,4.61044 -3.001798,6.2182 -0.705061,1.60776 -1.767203,3.66803 -2.360315,4.57837 -1.238703,1.90123 -3.56672,4.21415 -5.432868,5.39762 -1.69857,1.07721 -4.995003,2.3316 -7.654493,2.91277 -2.333238,0.50988 -3.311299,0.92256 -3.311299,1.39715 0,0.53585 -2.447855,5.57346 -3.506222,7.21568 -1.414993,2.19559 -2.698591,4.86809 -2.449566,5.1001 0.11407,0.10627 0.260554,0.0444 0.325518,-0.1375 0.06804,-0.1905 0.571239,-0.33073 1.186799,-0.33073 0.91994,0 1.022838,0.0552 0.739305,0.39687 -0.181157,0.21828 -0.271033,0.39688 -0.199724,0.39688 0.07131,0 1.483033,-1.50178 3.137165,-3.33728 1.654133,-1.83551 3.495475,-3.67301 4.091872,-4.08334 1.737328,-1.19531 4.097408,-1.84124 8.159642,-2.23322 6.51052,-0.62821 10.967001,-1.79125 16.167873,-4.21944 3.312207,-1.54641 6.115646,-3.53383 9.354953,-6.63193 4.870946,-4.65861 7.3809,-8.15272 11.461386,-15.9554 2.185598,-4.17929 3.427955,-6.23284 4.393244,-7.26179 0.832453,-0.88735 1.112753,-0.91706 1.112753,-0.11794 0,1.06601 1.394874,2.86003 5.183212,6.66638 5.839962,5.86773 10.45894,9.06719 16.50201,11.43058 2.70717,1.05874 7.92513,2.47469 9.00644,2.44398 0.21828,-0.006 -0.85328,-0.45973 -2.38125,-1.00785 -3.18675,-1.14316 -6.29839,-2.73848 -9.525,-4.88342 -3.47258,-2.30846 -4.71228,-3.3479 -7.143746,-5.98977 -1.975289,-2.14622 -3.94375,-4.77164 -3.577634,-4.77164 0.07013,0 0.906791,0.70622 1.859252,1.56938 3.292066,2.9834 15.091398,8.20614 21.509008,9.52054 1.85841,0.38062 2.52656,0.33381 1.37604,-0.0964 -1.22158,-0.45678 -6.11881,-3.25447 -8.8256,-5.04189 -1.89946,-1.25431 -5.09022,-4.09955 -4.59738,-4.09955 0.10075,0 1.38977,0.48071 2.8645,1.06824 3.38709,1.34941 6.37931,2.20807 9.18138,2.63473 2.05756,0.3133 2.21762,0.30311 2.56004,-0.16303 0.35134,-0.47829 0.39422,-0.46956 1.1258,0.22924 0.62797,0.59983 4.23338,-0.66853 4.47124,0.98254 0.48757,3.38436 2.13124,4.77538 5.54129,7.70439 1.55015,1.33146 10.85876,3.46232 12.92595,3.93493 1.712,0.3914 13.21437,-3.98856 15.65519,-4.56133 3.92493,-0.92103 5.14449,-8.71916 7.05919,-1.84016 l 0.58681,2.10826 2.1915,1.12217 c 1.26932,0.64996 2.45676,1.47251 2.82186,1.95474 1.70028,2.24574 1.92953,6.10009 0.53738,9.03465 -0.90409,1.90576 -2.53947,3.57904 -6.06122,6.20167 -7.28835,5.42761 -9.54542,6.50201 -13.6421,6.49386 -3.97542,-0.008 -5.70332,-1.53803 -5.67178,-5.02261 0.0188,-2.07527 0.39299,-2.99887 1.88342,-4.6486 0.79715,-0.88235 1.3446,-1.16951 3.51512,-1.84385 2.99912,-0.93175 5.13222,-2.15188 5.87989,-3.36328 l 0.53073,-0.85989 h -0.56467 c -0.77746,0 -7.75753,2.03499 -9.54268,2.7821 -0.80104,0.33525 -2.43869,0.75317 -3.63921,0.92871 -2.54385,0.37195 -8.49199,0.0939 -9.69571,0.0145 -3.71796,-0.24505 -1.51341,-0.18521 -13.25448,-0.43285 -3.69601,-0.008 -4.90329,-0.11103 -6.77163,-0.57797 -3.66724,-0.91654 -7.53734,-2.51922 -13.80697,-5.71772 -6.354432,-3.24176 -8.190591,-3.87954 -12.77633,-4.43778 -2.381166,-0.28986 -3.151854,-0.26351 -7.276041,0.24886 -4.117677,0.51156 -4.655377,0.6358 -5.009654,1.15753 -0.933941,1.37539 -4.278321,5.22297 -5.716397,6.5765 -2.332636,2.19548 -4.617966,3.71698 -8.450662,5.62618 -4.906212,2.44396 -9.662821,3.77685 -17.589192,4.92881 -4.806479,0.69854 -7.10204,1.4035 -8.710604,2.67499 -0.685911,0.54219 -2.885763,3.14324 -4.888559,5.78013 -4.601695,6.0586 -5.611788,6.91806 -9.165654,7.79882 -2.09495,0.5192 -3.468567,0.52162 -4.870009,0.009 z M 168.80373,157.42793 c 1.08552,-2.12779 0.92422,-4.80078 -0.34327,-5.68857 -0.85703,-0.60029 0.79888,-0.41569 1.27501,0.53207 0.53114,1.05727 0.61262,4.2776 0.26605,5.78821 -0.14189,0.61846 -1.8904,0.42578 -1.83607,0.42578 0.0543,0 0.34156,-0.47587 0.63828,-1.05749 z M 60.863197,125.36971 c 1.572895,-0.54832 0.701043,-0.75106 -3.250174,-0.75581 -3.424869,-0.004 -6.728083,-0.29697 -10.384895,-0.9207 -0.768465,-0.13108 -0.772679,-0.12636 -0.132292,0.14799 3.801471,1.62861 11.142288,2.44362 13.767361,1.52852 z M 171.93054,90.446123 c -2.81559,-1.408244 -3.33493,-1.810704 -2.33658,-1.810704 0.28887,0 1.77074,-0.416718 3.29305,-0.926041 1.52231,-0.509323 2.94711,-0.926042 3.16622,-0.926042 0.37174,0 2.6863,4.44033 2.44194,4.684689 -0.0568,0.05684 -0.92112,0.168277 -1.92061,0.247636 -1.78633,0.141834 -1.8654,0.120217 -4.64402,-1.269538 z m -17.71706,-6.949138 c -0.18244,-0.400402 -0.43717,-0.584752 -0.6795,-0.49176 -0.32531,0.124832 -0.35877,-0.101946 -0.20805,-1.410003 0.35009,-3.038222 1.13308,-5.0563 2.7466,-7.079046 0.81015,-1.015627 0.81709,-1.018245 1.0519,-0.396875 0.13001,0.344022 0.32423,1.161275 0.4316,1.816119 0.10737,0.654844 0.47947,1.871647 0.82689,2.704007 0.72103,1.727495 0.76819,2.058493 0.29329,2.058493 -0.18611,0 -1.1054,0.773906 -2.04288,1.719791 -0.93748,0.945886 -1.79979,1.719792 -1.91626,1.719792 -0.11646,0 -0.34308,-0.288233 -0.50359,-0.640518 z"
       id="path3"
       transform="translate(30.427075,-12.96459)" /></g></svg>
